<svg width="16" height="16" viewBox="0 0 16 16" fill="none" xmlns="http://www.w3.org/2000/svg" xmlns:xlink="http://www.w3.org/1999/xlink">
    <path id="a" d="M2.5 0L13.5 0C14.8807 0 16 1.11929 16 2.5L16 13.5C16 14.8807 14.8807 16 13.5 16L2.5 16C1.11929 16 0 14.8807 0 13.5L0 2.5C0 1.11929 1.11929 0 2.5 0Z" fill-rule="evenodd" fill="#FFFFFF"/>
    <path id="b" d="M6.01746 3.16614L8.61938 3.16614L8.61938 6.67627L6.01746 6.67627L6.01746 8.83691L5.07996 8.83691L5.07996 6.67627L2.5 6.67627L2.5 3.16614L5.07996 3.16614L5.07996 1.9375L6.01746 1.9375L6.01746 3.16614ZM3.4375 4.08167L3.4375 5.7699L5.07996 5.7699L5.07996 4.08167L3.4375 4.08167ZM6.01746 5.7699L7.67456 5.7699L7.67456 4.08167L6.01746 4.08167L6.01746 5.7699Z" fill-rule="evenodd" fill="#18A058"/>
    <path id="c" d="M16 2.5L16 13.5C16 14.8807 14.8807 16 13.5 16L2.5 16C1.68216 16 0.956024 15.6073 0.499908 15.0001L15.5005 1.00037C15.8141 1.41812 16 1.93738 16 2.5Z" fill-rule="evenodd" fill="#18A058"/>
    <path id="d" d="M11.5411 7.78125L13.7622 13.2708L12.6068 13.2708L12.1271 12.0183L9.9884 12.0183L9.52332 13.2708L8.4375 13.2708L10.589 7.78125L11.5411 7.78125ZM11.7737 11.0881L11.0394 9.16003L10.3271 11.0881L11.7737 11.0881Z" fill-rule="evenodd" fill="#FFFFFF"/>
    <defs/>
</svg>